<?xml version="1.0" encoding="utf-8"?>
<!-- Generator: Adobe Illustrator 26.3.1, SVG Export Plug-In . SVG Version: 6.00 Build 0)  -->
<svg version="1.1" id="Livello_1" xmlns="http://www.w3.org/2000/svg" xmlns:xlink="http://www.w3.org/1999/xlink" x="0px" y="0px"
	 viewBox="0 0 200 200" style="enable-background:new 0 0 200 200;" xml:space="preserve">
<style type="text/css">
	.st0{fill:#FE4E4F;}
	.st1{fill:#D0DB4C;}
</style>
<rect x="-13.5" y="-15.7" class="st0" width="233" height="240.1"/>
<g>
	<path class="st1" d="M153.2,28c0-2.5,0-4.9,0-7.2c0.1-6.6,5.1-11.7,11.5-11.6c6.4,0.1,11.4,5.1,11.4,11.5
		c0,38.1,0.3,76.3-0.1,114.3c-0.1,13.2-6,24.4-15,34c-11.9,12.6-26.9,19.3-43.9,21.1c-36.1,4-65.6-9.3-89.8-35.4
		c-4.8-5.2-4.5-12.7,0.3-17.4c4.8-4.6,12.1-4.4,17.4,0.3c14.3,12.5,29.5,23.1,48.2,28.2c12.7,3.5,25.4,4.2,37.6-1.6
		c14-6.6,22.3-17.6,22.9-33.4c0.5-10.5-3.7-19.1-11.9-25.8c-6.6-5.5-14.6-8.2-22.5-11c-7.6-2.6-15.4-4.9-23-7.5
		c-3.3-1.1-6.5-2.5-9.5-4.3c-7.5-4.5-8.4-13.3-2-19.2c6.5-6.1,14.5-7,22.4-3.9c8.7,3.4,17.3,7.5,25.7,11.5c5.9,2.8,11,2.4,15.2-1.7
		c4.9-4.9,4.8-12.3-0.3-16.9c-5.9-5.3-13-8.4-20.4-10.8c-16.3-5.4-32.6-6-48.5,1.4c-10.7,5-18.5,12.9-20.9,24.9
		c-3.4,15,3.1,28,16.7,34.8c11.3,5.6,23.3,9.4,35.4,13c4.5,1.4,9,3.1,13.3,5.1c11.3,5.5,8.9,17.2,0.7,22.3c-5.7,3.5-11.9,4-18.3,2.3
		c-14.9-4.1-28.2-11.5-40.5-20.6c-5.2-3.8-10.4-7.7-15.1-12c-9-8.2-13.9-18.5-15.5-30.5c-3.8-28.8,14-53.3,41.3-62.5
		c23.2-7.9,45.8-5.4,68,4.3C146.8,24.7,149.8,26.3,153.2,28z"/>
</g>
<image style="overflow:visible;" width="170" height="75" xlink:href="../../../Desktop/Screenshot 2026-05-20 at 15.15.37.png"  transform="matrix(1 0 0 1 238.5886 6.672)">
</image>
</svg>
